<svg width="200" height="140" viewBox="0 0 200 140" fill="none" xmlns="http://www.w3.org/2000/svg">
<path d="M67.3139 140C172.058 140 193.007 64.8905 193.007 46.4964C193.007 17.8832 166.949 0 130.161 0C35.635 0 6 64.3796 6 93.5036C6 123.139 32.5693 140 67.3139 140ZM24.3942 95.0365C24.3942 65.4015 117.387 22.9927 146 22.9927C157.752 22.9927 173.08 31.1679 173.08 44.9635C173.08 56.2044 159.796 70.5109 115.854 96.0584C86.7299 112.92 67.3139 119.051 53.5182 119.051C40.2336 119.051 32.5693 112.92 28.4818 105.766C25.927 102.701 24.3942 98.6131 24.3942 95.0365Z" fill="black"/>
</svg>
